<?xml version="1.0" encoding="utf-8"?>
<!-- Generator: Adobe Illustrator 18.0.0, SVG Export Plug-In . SVG Version: 6.00 Build 0)  -->
<!DOCTYPE svg PUBLIC "-//W3C//DTD SVG 1.1//EN" "http://www.w3.org/Graphics/SVG/1.1/DTD/svg11.dtd">
<svg version="1.1" id="Layer_1" xmlns="http://www.w3.org/2000/svg" xmlns:xlink="http://www.w3.org/1999/xlink" x="0px" y="0px"
	 viewBox="0 0 207 209" enable-background="new 0 0 207 209" xml:space="preserve">
<circle fill="#E09126" cx="104" cy="106" r="98.5"/>
<circle fill="none" cx="104" cy="106" r="96"/>
<path fill="#FFFFFF" d="M98.4,73.7c11.6,0,22.6,4.5,30.8,12.8c8.2,8.3,12.8,19.3,12.8,31h17.9c0-34-27.6-61.7-61.5-61.7
	C98.4,55.8,98.4,73.7,98.4,73.7z M98.5,41.9c41.5,0,75.2,33.9,75.2,75.6h17.9C191.6,66,149.8,24,98.5,24
	C98.5,24,98.5,41.9,98.5,41.9z M123.2,105c0,6.9-5.6,12.4-12.4,12.4c-6.9,0-12.4-5.6-12.4-12.4c0-6.9,5.6-12.4,12.4-12.4
	S123.2,98.1,123.2,105z"/>
</svg>
