<?xml version="1.0" encoding="utf-8"?>
<!-- Generator: Adobe Illustrator 18.0.0, SVG Export Plug-In . SVG Version: 6.00 Build 0)  -->
<!DOCTYPE svg PUBLIC "-//W3C//DTD SVG 1.1//EN" "http://www.w3.org/Graphics/SVG/1.1/DTD/svg11.dtd">
<svg version="1.1"
	 id="svg2" xmlns:dc="http://purl.org/dc/elements/1.1/" xmlns:svg="http://www.w3.org/2000/svg" xmlns:cc="http://creativecommons.org/ns#" xmlns:rdf="http://www.w3.org/1999/02/22-rdf-syntax-ns#" xmlns:inkscape="http://www.inkscape.org/namespaces/inkscape"
	 xmlns="http://www.w3.org/2000/svg" xmlns:xlink="http://www.w3.org/1999/xlink" x="0px" y="0px" viewBox="0 0 56.3 56.3"
	 enable-background="new 0 0 56.3 56.3" xml:space="preserve">
<g id="g10" transform="matrix(1.25,0,0,-1.25,0,56.25)">
	<g id="g12">
		<g>
			<defs>
				<polyline id="SVGID_1_" points="0,0 0,45 45,45 45,0 0,0 				"/>
			</defs>
			<clipPath id="SVGID_2_">
				<use xlink:href="#SVGID_1_"  overflow="visible"/>
			</clipPath>
			<g id="g14" clip-path="url(#SVGID_2_)">
				<g id="g20">
					<g id="g22">
						<g id="g24">
							<path id="path26" fill="#2B2B2B" d="M9.3,6V39c0,0.8,0.7,1.5,1.5,1.5h13.3l11.4-11.4V6c0-0.8-0.7-1.5-1.5-1.5H10.9
								C10,4.5,9.3,5.2,9.3,6z"/>
						</g>
					</g>
					<g id="g28">
						<g id="g30">
							<path id="path32" fill="#525252" d="M24.2,40.5l11.4-11.4h-9.9c-0.8,0-1.5,0.7-1.5,1.5V40.5z"/>
						</g>
					</g>
					<g id="g34">
						<g id="g36">
							<path id="path38" fill="#E6E6E6" d="M16.9,12.6c0-0.5-0.2-0.9-0.5-1.2C16,11.2,15.6,11,15,11h-0.8V8.7h-0.8v5.5H15
								c0.6,0,1-0.1,1.3-0.4C16.7,13.5,16.9,13.1,16.9,12.6z M15.7,11.9c0.2,0.2,0.3,0.4,0.3,0.7c0,0.3-0.1,0.6-0.3,0.7
								c-0.2,0.1-0.5,0.2-0.8,0.2h-0.7v-1.9h0.7C15.3,11.7,15.5,11.7,15.7,11.9z"/>
						</g>
					</g>
					<g id="g40">
						<g id="g42">
							<path id="path44" fill="#E6E6E6" d="M21.4,13.5c0.6-0.5,0.9-1.2,0.9-2c0-0.8-0.3-1.5-0.9-2c-0.5-0.5-1.2-0.7-2.1-0.7h-1.7
								v5.5h1.7C20.2,14.2,20.9,13.9,21.4,13.5z M21.5,11.4c0,0.6-0.2,1.2-0.7,1.6c-0.4,0.3-0.9,0.5-1.5,0.5h-0.9V9.3h0.9
								c0.6,0,1.1,0.2,1.5,0.5C21.2,10.3,21.5,10.8,21.5,11.4z"/>
						</g>
					</g>
					<g id="g46">
						<g id="g48">
							<path id="path50" fill="#E6E6E6" d="M26.2,14.2v-0.6h-2.3v-1.8h2.1V11h-2.1V8.7h-0.8v5.5C23.2,14.2,26.2,14.2,26.2,14.2z"/>
						</g>
					</g>
				</g>
			</g>
		</g>
	</g>
</g>
</svg>
